<svg width="18" height="20" viewBox="0 0 18 20" fill="none" xmlns="http://www.w3.org/2000/svg">
<path fill-rule="evenodd" clip-rule="evenodd" d="M9 0C6.239 0 4 2.239 4 5V7H3C1.895 7 1 7.895 1 9V17C1 18.105 1.895 19 3 19H15C16.105 19 17 18.105 17 17V9C17 7.895 16.105 7 15 7H14V5C14 2.239 11.761 0 9 0ZM12 7V5C12 3.343 10.657 2 9 2C7.343 2 6 3.343 6 5V7H12ZM9 11.5C8.448 11.5 8 11.948 8 12.5V14.5C8 15.052 8.448 15.5 9 15.5C9.552 15.5 10 15.052 10 14.5V12.5C10 11.948 9.552 11.5 9 11.5Z" fill="#000"/>
</svg>
